<?xml version="1.0" standalone="no"?>
<!DOCTYPE svg PUBLIC "-//W3C//DTD SVG 20010904//EN"
 "http://www.w3.org/TR/2001/REC-SVG-20010904/DTD/svg10.dtd">
<svg version="1.0" xmlns="http://www.w3.org/2000/svg"
 width="260.000000pt" height="260.000000pt" viewBox="0 0 260.000000 260.000000"
 preserveAspectRatio="xMidYMid meet">
<metadata>
Created by potrace 1.14, written by Peter Selinger 2001-2017
</metadata>
<g transform="translate(0.000000,260.000000) scale(0.100000,-0.100000)"
fill="#000000" stroke="none">
<path d="M2047 1674 c-9 -10 9 -49 47 -99 20 -26 36 -51 36 -55 0 -5 -29 11
-64 35 -79 55 -132 75 -203 75 -108 0 -212 -46 -281 -125 -40 -45 -61 -85 -82
-160 l-18 -60 0 160 c0 88 -1 167 -1 175 -1 13 -47 15 -354 14 -194 0 -357 -3
-363 -6 -5 -4 -9 -145 -9 -353 l1 -347 -21 26 c-12 15 -79 140 -149 278 -117
231 -193 365 -200 357 -2 -2 -29 -53 -61 -114 -208 -396 -295 -565 -295 -574
0 -4 326 -8 725 -8 l725 0 1 26 c0 14 0 87 0 161 0 106 3 129 11 105 68 -198
203 -298 387 -289 115 6 236 82 294 184 27 48 56 135 52 160 -1 8 -5 41 -9 74
-3 32 -11 67 -17 77 -5 11 -6 19 0 19 12 0 57 -61 209 -280 110 -160 164 -221
180 -205 10 10 -72 135 -268 410 -59 83 -134 188 -166 234 -57 81 -94 118
-107 105z"/>
</g>
</svg>
